<?xml version="1.0" encoding="UTF-8"?>
<!-- Created with Inkscape (http://www.inkscape.org/) -->
<svg width="14.709mm" height="7.3795mm" version="1.1" viewBox="0 0 14.709 7.3795" xml:space="preserve" xmlns="http://www.w3.org/2000/svg"><g transform="translate(-36.036 -176.04)" fill="#173651"><text x="35.750259" y="179.68362" font-family="'Sunshine Boulevard Personal Use'" font-size="6.35px" stroke-width=".26458" xml:space="preserve"><tspan x="35.750259" y="179.68362" fill="#173651" font-family="'Crimson Pro'" font-size="6.35px" font-style="italic" stroke-width=".26458">Home</tspan></text><path d="m49.37 181.97c-0.01115 0.1018-0.18185 0.16128-0.79911 0.27845-3.3181 0.62986-6.9077 0.61939-10.16-0.0296-0.4338-0.0866-0.43937-0.0984 0.11906 0.25312 0.35915 0.22609 0.55732 0.33586 0.9854 0.54582 0.15861 0.0778 0.29721 0.16215 0.30798 0.18745 0.03934 0.0924-0.21187 0.24771-0.34827 0.21534-0.31244-0.0742-1.8076-0.94302-2.0451-1.1885-0.09757-0.10082-0.14747-0.22982-0.12769-0.33005 0.03236-0.16396 0.4728-0.32159 1.3046-0.46689 0.57471-0.1004 0.72826-0.14026 0.93122-0.24174 0.30081-0.1504 0.39073-0.16955 0.45998-0.098 0.04619 0.0477 0.04334 0.065-0.0211 0.1273-0.18244 0.17654-0.73458 0.36228-1.4154 0.47616-0.25168 0.0421-0.45775 0.0855-0.45793 0.0964-3.87e-4 0.0238 0.99013 0.21658 1.6397 0.31918 0.55774 0.0881 1.4022 0.18599 2.0738 0.2404 0.68232 0.0553 2.3492 0.0811 3.0705 0.0475 1.333-0.062 2.8745-0.2477 4.0494-0.48778 0.25434-0.052 0.3874-0.0556 0.42974-0.0119 0.0053 5e-3 0.0067 0.0357 0.0033 0.0672z" stroke-width=".11721"/></g></svg>
