<?xml version="1.0" encoding="UTF-8" standalone="no"?>
<svg
   width="686.79"
   height="717.44"
   version="1.1"
   viewBox="0 0 686.79 717.44"
   id="svg124"
   xmlns="http://www.w3.org/2000/svg"
   xmlns:svg="http://www.w3.org/2000/svg">
  <defs
     id="defs124" />
  <g
     fill="#0f2030"
     id="g95"
     transform="translate(-172.72,-128.63)">
    <path
       d="m 554.17,129.79 c 14.49,0.96 29.47,8.04 35.89,20.72 q 5.36,10.59 3.15,20.97 c -3.39,15.87 -19.09,23.83 -34.07,17.84 q -9.14,-3.66 -19.94,-8.5 -12.67,-5.68 -28.39,-7.25 c -8.7,-0.87 -17.74,0.89 -26.36,2.58 q -5.13,1.01 -9.99,3.24 -1.67,0.76 -0.77,-0.84 16.11,-28.5 44.91,-41.91 17.3,-8.06 35.57,-6.85 z"
       id="path84" />
    <path
       d="m 352.81,225.29 q -14.63,6.1 -33.39,12.3 -2.07,0.68 -0.38,-0.7 7.82,-6.38 16.81,-15.93 12.59,-13.36 17.76,-28.51 c 4.27,-12.51 4.67,-29.69 20.18,-34.17 10.2,-2.95 20.55,2.03 24.69,11.96 q 2.67,6.42 1.83,11.9 c -2.36,15.3 -17.49,27.4 -30.9,34.92 q -9.07,5.09 -16.6,8.23 z"
       id="path85" />
    <path
       d="m 415.74,211.43 c -3.13,1.4 -6.13,3.21 -9.34,4.39 q -1.79,0.66 -0.47,-0.72 c 10.5,-10.85 15.86,-23.82 18.91,-38.62 q 0.93,-4.52 3.25,-8.14 c 7,-10.89 23.57,-6.58 24.05,6.24 0.31,8.09 -6.61,15.85 -12.77,21.13 q -12.57,10.77 -23.63,15.72 z"
       id="path86" />
    <path
       d="m 296.85,167.33 c 13.62,-3.39 26.14,5.75 27.58,19.6 1.34,12.84 -10.01,21.76 -19.31,28.33 -12.71,8.97 -23.24,17.86 -31.85,31.1 q -2.59,3.98 -2.14,-0.74 c 0.29,-3.09 -0.19,-6.1 -0.06,-9.21 q 1.04,-23.35 5.22,-42.73 c 2.55,-11.83 7.95,-23.21 20.56,-26.35 z"
       id="path87" />
    <path
       d="m 539.57,204.42 c 9.8,4.26 17.88,10.12 21.21,20.49 5.39,16.8 -13.77,31.83 -29.03,23.44 -8.03,-4.42 -10.02,-13.38 -13.6,-21.31 q -2.47,-5.49 -8,-11.19 -12.17,-12.54 -27.24,-16.05 -2.3,-0.53 0.03,-0.92 c 3.69,-0.61 7.39,-1.55 11.01,-1.82 q 24.55,-1.78 45.62,7.36 z"
       id="path88" />
    <ellipse
       transform="rotate(-14.4,1120.2,-2302)"
       rx="4.52"
       ry="4.1900001"
       id="ellipse88"
       cx="0"
       cy="0" />
    <path
       d="m 456.01,213.83 c 11.48,-2.58 25.51,-1.46 32.4,8.82 4.86,7.27 4.67,16.55 -1.95,22.41 -5.63,4.97 -13.82,5.14 -20.5,2.2 -6.38,-2.82 -12.4,-6.63 -19.05,-9.23 q -14.61,-5.72 -30.97,-4.8 -1.91,0.11 -0.36,-1.01 18.72,-13.52 40.43,-18.39 z"
       id="path89" />
    <ellipse
       transform="rotate(93.9,222.76,416.96)"
       rx="6.5100002"
       ry="6.3200002"
       id="ellipse89"
       cx="0"
       cy="0" />
    <ellipse
       transform="rotate(-12.6,1484.4,-3180.7)"
       rx="20.85"
       ry="20.48"
       id="ellipse90"
       cx="0"
       cy="0" />
    <ellipse
       transform="rotate(131.1,284.43,276.31)"
       rx="6.5999999"
       ry="6.3000002"
       id="ellipse91"
       cx="0"
       cy="0" />
    <circle
       cx="589.63"
       cy="251.34"
       r="6.6700001"
       id="circle91" />
    <path
       d="m 433.24,308.27 c -10.57,-31.86 -43.75,-54.61 -76.27,-58.39 a 0.5,0.5 0 0 1 -0.37,-0.75 q 0.19,-0.3 0.54,-0.37 6.71,-1.26 12.74,-1.93 18.54,-2.05 36.64,1.77 14.25,3.01 29.66,8.39 c 8.94,3.13 17.74,7.44 26.02,12.07 q 8.56,4.79 15.52,11.73 c 12.83,12.8 15.91,31.58 4.01,46.25 -8.6,10.62 -25.45,13.75 -36.28,4.94 -7.61,-6.19 -9.26,-14.83 -12.21,-23.71 z"
       id="path91" />
    <circle
       cx="638.57001"
       cy="261.82001"
       r="11.97"
       id="circle92" />
    <path
       d="m 771.22,514.21 q -0.71,2.29 0.77,0.4 6.87,-8.77 12.62,-18.44 11.6,-19.54 19.65,-42.49 0.34,-0.96 -0.54,-1.46 c -12.69,-7.15 -27.14,-13.38 -41.66,-15.75 -32.07,-5.24 -64.6,3.6 -90.45,23.16 q -6.38,4.83 -11.07,10.14 a 0.46,0.46 0 0 1 -0.77,-0.14 q -0.07,-0.16 0,-0.32 c 3.03,-7.78 6.07,-15.05 10.86,-22.2 q 19.88,-29.68 57.09,-35.15 c 28.76,-4.23 56.33,3.62 81.64,17.48 q 0.55,0.31 0.67,-0.31 c 5.74,-31.2 -1.8,-60.03 -24.34,-82.6 C 757.9,318.71 715.36,310.6 677.82,317.01 q -39.81,6.81 -71.77,29.88 -19.17,13.82 -43.72,37.89 c -8.02,7.87 -19.72,18.16 -29.75,25.59 q -35.33,26.16 -78.38,36.06 c -7.05,1.62 -15.01,2.7 -22.46,3.72 q -4.82,0.66 -9.25,0.9 -19.29,1 -39.65,-1.58 -17.41,-2.21 -37.47,-9.62 C 309.21,426.51 279.15,402 264.25,366.34 c -9.84,-23.53 -9.13,-49.86 4.78,-71.55 q 1.27,-1.98 -0.37,-0.3 c -10.8,11 -18.56,22.45 -22.8,37.33 q -5.99,21.04 -4.87,40.83 1.26,22.34 7.5,40.32 c 2.61,7.53 5.31,15.38 8.78,22.58 q 10.73,22.28 24.18,40.74 c 8.38,11.52 17.69,23.52 27.6,33.37 12.09,12.02 25.36,22.28 39.28,31.78 q 18.03,12.3 37.31,20.72 16.31,7.12 36.6,12.8 0.84,0.23 0.28,0.91 -3.69,4.5 -5.78,9.35 a 1.75,1.75 0 0 1 -1.87,1.04 q -15.55,-2.39 -32.65,-7.43 -6.76,-1.99 -12.29,-4.62 -1.25,-0.6 -0.15,0.23 c 4.87,3.64 10.8,6.66 16.31,9.73 8.35,4.67 16.73,7.79 25.39,11.56 a 0.72,0.72 0 0 1 0.31,1.05 q -3.05,4.68 -5.61,9.75 -1.08,2.15 -3.35,1.65 -12.79,-2.79 -26.75,-7.41 -7.88,-2.61 -14.26,-6.12 -0.21,-0.12 -0.13,0.11 0.05,0.14 0.18,0.22 16.67,10.58 26.86,16.32 4.71,2.65 9.59,5.57 a 0.43,0.42 35.6 0 1 0.11,0.64 q -8.6,10.49 -19.41,18.35 -0.17,0.12 -0.36,0.02 -7.46,-3.78 -14.64,-7.5 -40.97,-21.25 -73.52,-52.87 c -10.77,-10.46 -22.01,-22.32 -30.93,-34.34 q -21.6,-29.1 -34.98,-57.25 -17.7,-37.26 -20.35,-75.48 c -0.88,-12.62 -1.3,-26.48 0.23,-38.8 q 3.82,-30.82 16.51,-55.63 c 16.26,-31.75 42.92,-55.04 78.67,-59.66 q 12.9,-1.67 27.89,0.36 9.46,1.29 18.92,5.03 c 27.93,11.06 48.92,32.16 61.09,59.16 4.97,11.02 8.56,25.98 2.5,36.76 -5.69,10.12 -18.72,14.6 -29.24,8.33 -10.58,-6.31 -12.36,-17.04 -13.66,-28.42 Q 364.7,314.25 348.6,301.35 c -12.31,-9.86 -29.63,-12.79 -43.88,-5.66 q -17.35,8.68 -20.48,30.07 c -4.45,30.36 21.27,60.69 45.58,75.11 q 28.28,16.77 57.78,20.61 55.4,7.2 105.04,-18.57 c 15.39,-7.99 30.13,-19.3 42.79,-30.86 q 15.89,-14.5 29.39,-26.68 9.09,-8.22 19.9,-16.28 c 45.17,-33.7 102.78,-48.96 157.46,-35.37 29.38,7.3 57.78,25.28 74.43,50.06 q 21.02,31.3 20.13,69.06 c -0.53,22.11 -6.11,44.07 -14.68,65.2 -18.22,44.92 -49.68,82.18 -87.24,113.19 q -17.34,14.31 -44.42,30.67 -8.99,5.43 -17.99,9.77 -40.73,19.67 -79.7,27.52 -32.18,6.48 -64.84,7.9 -1.13,0.04 -0.16,-0.54 1.9,-1.16 3.59,-2.97 c 7.62,-8.21 15.5,-16.91 21.65,-26.81 q 0.62,-1 1.67,-1.16 6.4,-0.98 12.58,-1.8 13.78,-1.82 30.3,-5.95 32.31,-8.09 60.19,-24.11 6.98,-4.01 14.43,-10.61 16.43,-14.54 28.21,-33.44 c 8.96,-14.36 15.11,-30.95 19.44,-47.48 5.15,-19.67 5.5,-40.75 2.76,-60.8 q -0.2,-1.46 0.9,-0.48 0.4,0.36 0.6,0.86 c 9.28,23.67 11.41,48.37 5.95,72.83 q -6.35,28.41 -22.76,51.91 -0.59,0.86 0.27,0.26 21.21,-14.71 40.14,-34.94 2.64,-2.81 3.93,-5.77 11.98,-27.28 11.61,-54.11 -0.27,-19.57 -4.84,-39.21 -0.2,-0.87 0.56,-0.41 1.08,0.66 1.8,1.89 8.7,14.76 11.17,28.15 2.66,14.45 1.88,27.67 -0.44,7.39 -2.52,14.14 z M 236.5,331.07 a 0.46,0.46 0 0 0 -0.06,0.8 q 0.59,0.37 1.04,0 a 0.43,0.43 0 0 0 0,-0.66 q -0.46,-0.38 -0.98,-0.14 z m 96.664,237.11 a 11.31,10.98 50.3 0 0 1.2235,-15.716 11.31,10.98 50.3 0 0 -15.672,-1.6882 11.31,10.98 50.3 0 0 -1.2235,15.716 11.31,10.98 50.3 0 0 15.672,1.6882 z"
       id="path92" />
    <circle
       cx="563.10999"
       cy="269.34"
       r="4.2800002"
       id="circle93" />
    <circle
       cx="520.12"
       cy="281.63"
       r="4.46"
       id="circle94" />
    <circle
       cx="534.67999"
       cy="307.51999"
       r="10.28"
       id="circle95" />
  </g>
  <path
     d="m 63.78,202.44 q 0.52,-0.24 0.98,0.14 a 0.43,0.43 0 0 1 0,0.66 q -0.45,0.37 -1.04,0 a 0.46,0.46 0 0 1 0.06,-0.8 z"
     fill="#38b8e2"
     id="path95" />
  <circle
     cx="8.819993"
     cy="324.60001"
     r="4.6799998"
     fill="#38b8e2"
     id="circle96" />
  <path
     d="m 450.02,343.67 a 22.56,22.56 0 0 1 -22.56,22.56 22.56,22.56 0 0 1 -22.56,-22.56 22.56,22.56 0 0 1 22.56,-22.56 22.56,22.56 0 0 1 22.56,22.56 z m -26.258,-1.6815 a 5.77,5.48 30.5 0 0 -2.1903,-7.6502 5.77,5.48 30.5 0 0 -7.7529,1.7932 5.77,5.48 30.5 0 0 2.1903,7.6502 5.77,5.48 30.5 0 0 7.7529,-1.7932 z"
     fill="#0f2030"
     id="path96" />
  <ellipse
     transform="rotate(30.5)"
     rx="5.77"
     ry="5.48"
     fill="#fdfef8"
     id="ellipse96"
     cx="532.94727"
     cy="79.587448" />
  <ellipse
     transform="rotate(-5.9)"
     rx="4.8600001"
     ry="4.5599999"
     fill="#38b8e2"
     id="ellipse97"
     cx="641.01318"
     cy="410.83002" />
  <g
     fill="#0f2030"
     id="g100"
     transform="translate(-172.72,-128.63)">
    <path
       d="m 670.79,525.89 c 9.08,-15.46 15.21,-33.07 19.12,-50.44 q 0.61,-2.73 0.98,0.04 c 2.49,18.9 -1.37,39.25 -9.4,56.47 q -8.93,19.19 -21.87,33.72 c -23.93,26.88 -57.44,44.21 -93.25,48.94 q -0.7,0.1 -0.39,-0.54 3.27,-6.82 5.48,-14.38 c 0.4,-1.37 1.22,-2.17 2.62,-2.51 q 18.84,-4.54 30.68,-10.33 42.4,-20.76 66.03,-60.97 z"
       id="path97" />
    <rect
       transform="rotate(-9.1,3234.9,-902.67)"
       x="-8.9700003"
       y="-13.43"
       width="17.940001"
       height="26.860001"
       rx="8.3900003"
       id="rect97" />
    <rect
       transform="rotate(9.8,-2552.5,5202.4)"
       x="-8.79"
       y="-17.02"
       width="17.58"
       height="34.040001"
       rx="8.3500004"
       id="rect98" />
    <circle
       cx="315.98999"
       cy="500.01001"
       r="3.96"
       id="circle98" />
    <path
       d="m 587.2,561.38 c 2.55,-1.09 5.2,-1.98 7.64,-3.23 16.34,-8.37 31.13,-20.35 43.47,-33.1 q 2.06,-2.13 7.83,-9.67 0.07,-0.09 0.18,-0.06 l 0.33,0.11 a 0.42,0.42 0 0 1 0.26,0.58 c -10.76,22.6 -25.28,40.16 -46.88,53.66 q -11.25,7.03 -23.14,9.87 -0.87,0.2 -0.58,-0.65 c 0.32,-0.92 0.6,-1.79 0.65,-2.77 q 0.25,-5.37 0.7,-10.73 a 1.07,1.06 -5.3 0 1 0.77,-0.92 q 4.36,-1.22 8.77,-3.09 z"
       id="path98" />
    <path
       d="m 199.96,537.75 q 4.86,22.72 6.85,29.9 5.35,19.28 17.37,47.63 1.95,4.6 5.27,10.75 15.3,28.28 37.47,51.81 2.81,2.99 5.73,4.11 11.79,10.88 23.81,19.74 7.37,5.44 12.13,9.62 c 7.67,6.73 15.6,13.27 23.38,19.89 q 10.15,8.64 21.74,15.98 5.37,3.41 10.99,6.83 c 11.3,6.88 23.97,11.91 36.56,15.96 q 2.9,0.93 5.97,0.96 c 2.17,11.9 16.56,15.46 23.76,5.91 q 3.03,0.99 6.26,0.74 4.5,-0.35 9.01,-0.58 4.48,-0.23 7.5,1.18 c 5.94,2.79 12.06,5.9 18.19,7.86 7.02,2.24 13.52,3.47 21.27,4.96 q 6.35,1.22 12.9,1.87 c 14.68,1.46 29.95,1.9 44.65,0.32 6.84,-0.74 14.21,-1.37 20.64,-2.54 q 24.26,-4.41 46.57,-11.95 9.11,-3.07 18.09,-6.67 14.67,-5.87 31.29,-14.52 4.18,-2.17 7.49,-4.55 3.51,-2.54 7.21,-4.32 6.68,-3.21 12.56,-7.78 8.91,-6.93 16.85,-12.88 8.63,-6.48 26.07,-23.41 6.72,-6.53 13.3,-13.21 c 4.85,-4.93 9.25,-10.06 13.76,-15.18 q 2.13,-2.42 7.67,-9.47 3.51,-4.48 7.93,-9.24 2.48,-2.67 1.7,-5.3 c 0.68,-0.37 1.4,-0.75 1.91,-1.42 q 8.73,-11.45 13.25,-19.03 15.72,-26.39 25.19,-55.84 4.18,-13 8.7,-27 4,-5.59 9.94,-6.19 3.84,-0.38 7.23,1.46 c 5.59,3.02 6.78,8.67 6.1,14.54 q -1.28,11.11 -4.23,23.89 -7.56,32.87 -22.09,65.16 -29.59,65.74 -84.34,114.1 c -20.9,18.46 -44.96,34.48 -68.88,46.47 q -30.05,15.05 -62.84,24.22 -6.74,1.88 -25.53,5.84 -9.76,2.06 -19.68,3.44 -27.13,3.76 -53.86,3.19 c -11.27,-0.24 -22.31,-0.68 -33.36,-2.07 q -33.88,-4.24 -66.28,-14.14 -9.19,-2.8 -18.88,-6.56 Q 368.1,812.1 345.3,799.29 C 290.72,768.65 246.14,722.37 215.65,667.84 q -4.85,-8.66 -8.96,-17.54 -21.4,-46.2 -29.35,-95.02 -1.4,-8.61 -1.41,-16.61 -0.01,-5.2 3.98,-8.35 4.21,-3.33 9.82,-2.11 6.51,1.42 9.35,7.5 0.62,1.34 0.88,2.04 z m 640.99,37.24 a 5.97,5.97 0 0 0 -5.97,-5.97 5.97,5.97 0 0 0 -5.97,5.97 5.97,5.97 0 0 0 5.97,5.97 5.97,5.97 0 0 0 5.97,-5.97 z m -17.293,24.64 a 3.88,3.72 89.3 0 0 3.6723,-3.9251 3.88,3.72 89.3 0 0 -3.7671,-3.8343 3.88,3.72 89.3 0 0 -3.6723,3.9251 3.88,3.72 89.3 0 0 3.7671,3.8343 z m -606.91,42.953 a 2.34,1.82 85.5 0 0 1.6308,-2.4756 2.34,1.82 85.5 0 0 -1.998,-2.19 2.34,1.82 85.5 0 0 -1.6308,2.4756 2.34,1.82 85.5 0 0 1.998,2.19 z m 587.91,14.547 a 4.46,4.18 89.3 0 0 4.1252,-4.5108 4.46,4.18 89.3 0 0 -4.2342,-4.4086 4.46,4.18 89.3 0 0 -4.1252,4.5108 4.46,4.18 89.3 0 0 4.2342,4.4086 z m -56.823,68.348 a 6.68,6.44 40.6 0 0 -0.8809,-9.2369 6.68,6.44 40.6 0 0 -9.2629,0.5425 6.68,6.44 40.6 0 0 0.8809,9.2369 6.68,6.44 40.6 0 0 9.2629,-0.5425 z m -45.1,32.794 a 6.1,5.84 61.7 0 0 2.2501,-8.1396 6.1,5.84 61.7 0 0 -8.0339,-2.6022 6.1,5.84 61.7 0 0 -2.2501,8.1396 6.1,5.84 61.7 0 0 8.0339,2.6022 z m -367.2,-1.1518 a 6.8,6.66 9.9 0 0 -5.5537,-7.7299 6.8,6.66 9.9 0 0 -7.8437,5.3917 6.8,6.66 9.9 0 0 5.5537,7.7299 6.8,6.66 9.9 0 0 7.8437,-5.3917 z"
       id="path99" />
    <circle
       cx="228.61"
       cy="533.76001"
       r="5.46"
       id="circle99" />
    <circle
       cx="814.15997"
       cy="538.04999"
       r="5.6799998"
       id="circle100" />
  </g>
  <path
     d="m 27.24,409.12 q 8.18,2.21 15.2,6.86 7.38,4.88 13.31,9.36 13.82,10.45 24.17,24.79 c 9.36,12.97 14.4,29.4 18.46,45.09 q 2.61,10.06 8.33,20.55 8.41,15.39 24.72,22.07 6.38,2.62 13.35,4.55 0.68,0.19 0.26,0.76 c -3.42,4.54 -2.96,11.3 -2.52,16.5 q -4,-0.11 -6.25,-0.55 -17.48,-3.43 -36.34,-5.78 Q 97.01,552.2 94.2,549.21 72.03,525.68 56.73,497.4 53.41,491.25 51.46,486.65 39.44,458.3 34.09,439.02 32.1,431.84 27.24,409.12 Z m 43.432,72.352 a 5.99,5.55 47.3 0 0 0.0166,-8.1659 5.99,5.55 47.3 0 0 -8.141,-0.6383 5.99,5.55 47.3 0 0 -0.0166,8.1659 5.99,5.55 47.3 0 0 8.141,0.6383 z m 33.808,54.368 a 4.05,4.05 0 0 0 -4.05,-4.05 4.05,4.05 0 0 0 -4.05,4.05 4.05,4.05 0 0 0 4.05,4.05 4.05,4.05 0 0 0 4.05,-4.05 z"
     fill="#38b8e2"
     id="path100" />
  <path
     d="m 197.15,552.1 q 37.62,7.03 73.39,-3.9 c 37.53,-11.47 72.57,-35.89 90.2,-71.65 q 5.1,-10.34 9.66,-21.74 c 2.31,-5.76 5.61,-11.03 9.49,-15.96 q 6.89,-8.74 13.38,-17.64 1.01,-1.39 1.15,0.32 1.04,12.37 -0.4,25.83 c -1.46,13.65 -6.87,28.34 -13.05,40.34 q -8.2,15.92 -21.39,31.55 c -21.06,24.97 -49.31,42.26 -79.92,52.14 q -40.66,13.12 -82.14,7.15 -16.56,-2.38 -31.02,-8.45 c -8.48,-3.55 -16.34,-11.58 -13.13,-21.55 q 2.07,-6.46 9.5,-9.2 c 29.88,-11 60.76,-24.93 77.27,-53.83 5.7,-9.97 10.45,-20.94 16.49,-31.03 6.77,-11.3 15.17,-21.38 25.81,-28.38 12.88,-8.47 29.37,-14.74 44.27,-14.08 2.69,0.12 5.38,-0.17 8.12,0.09 q 10.96,1.03 21.55,4.52 1.3,0.43 -0.06,0.63 c -3.48,0.52 -7.02,0.98 -10.43,2 q -14.15,4.22 -28.04,12.11 c -19.75,11.21 -35.89,25.08 -44.57,45.41 q -6.86,16.07 -13.68,27.9 c -13.7,23.78 -37.54,37.95 -62.48,47.06 q -0.64,0.23 0.03,0.36 z"
     fill="#0f2030"
     id="path101" />
  <ellipse
     transform="rotate(-2)"
     rx="7.29"
     ry="7.0500002"
     fill="#0f2030"
     id="ellipse101"
     cx="205.46956"
     cy="428.16473" />
  <ellipse
     transform="rotate(50.3)"
     rx="11.31"
     ry="10.98"
     fill="#fdfef8"
     id="ellipse102"
     cx="429.36523"
     cy="157.32988" />
  <path
     d="m 658.23,420.25 q -4.52,14 -8.7,27 -9.47,29.45 -25.19,55.84 -4.52,7.58 -13.25,19.03 c -0.51,0.67 -1.23,1.05 -1.91,1.42 -2.59,0.88 -4.99,1.98 -7.58,2.82 q -8.73,2.85 -17.91,5.07 c -11.73,2.85 -23.33,6.66 -33.98,11.4 q -14.46,6.44 -26.09,17.63 c -8.15,7.84 -16.83,17.49 -27.17,24.96 q -6.72,4.85 -15.81,8.77 -10.51,4.54 -17.27,6.68 c -13.91,4.4 -27.14,5.06 -42.84,5.8 q 4.8,-5.12 1.33,-9.91 c -4.41,-6.09 -12.69,-2.82 -12.87,4.46 q -6.58,-1.28 -13.08,-2.27 -3.33,-0.51 -13.7,0.56 -3.42,0.36 -7.86,-0.19 -5.11,-0.62 -11.33,0.06 c -9.15,1.02 -16.98,0.82 -25.12,2.16 q -5.53,0.91 -18.39,3.84 -8.89,-1.5 -14.75,5.12 -1.93,-0.45 -4,0.23 c -5.95,1.97 -9.8,3.53 -16.86,2.47 q -1.64,-0.24 -3.34,0.42 a 0.92,0.97 5.5 0 0 -0.48,0.42 q -0.2,0.37 -0.59,0.47 a 0.79,0.8 63 0 1 -0.85,-0.27 q -0.11,-0.13 -0.24,-0.23 a 1.79,1.79 0 0 0 -0.78,-0.33 q -11.55,-1.84 -22.35,-4.43 -1.8,-0.44 -3.52,-0.67 -1.9,-0.26 -3.49,-0.92 -2.48,-1.03 -5.04,-1.74 -3.43,-0.96 -6.64,-2.14 -1.5,-0.56 -3.08,0.49 a 0.71,0.71 0 0 1 -0.83,-0.02 q -0.87,-0.67 -1.69,-0.75 l -16.56,-11.89 c 23.31,0.02 45.99,-2 68.24,-9.35 q 17.7,-5.84 33.39,-14.11 a 2.19,2.19 0 0 1 2.4,0.24 q 8.76,7.11 17,14.19 c 7.15,6.15 16.68,14.01 26.32,10.82 7.25,-2.39 5.77,-11.55 1.75,-15.84 -4.44,-4.72 -11.26,-8.49 -17.14,-11.48 q -2.97,-1.51 0.3,-2.13 1.99,-0.38 4.04,-0.33 c 10.36,0.24 20.66,1.45 30.81,3.71 q 9.86,2.2 19.39,3.62 10.85,1.63 26.07,0.95 24.9,-1.12 47.31,-13.85 c 7.35,-4.17 13.75,-9.1 19.58,-14.79 q 10.12,-9.88 20.48,-18.28 c 8.13,-6.59 18.08,-11.46 28.59,-15.51 11.25,-4.35 23.86,-7.67 34.32,-12.66 q 13.94,-6.66 26.86,-17.75 12.75,-10.95 19.44,-18.5 6.12,-6.92 13.89,-18.26 8.62,-12.58 20.77,-22.05 z m -49.85,61.09 c -0.37,3.11 3.07,3.73 5.29,3.24 q 1.6,-0.36 1.44,-2 -0.25,-2.59 -2.07,-4.83 -0.69,-0.85 -1.69,-0.42 -2.62,1.1 -2.97,4.01 z m -71.005,54.627 a 3.36,3.71 9.7 0 0 3.9371,-3.0909 3.36,3.71 9.7 0 0 -2.6869,-4.2231 3.36,3.71 9.7 0 0 -3.9371,3.0909 3.36,3.71 9.7 0 0 2.6869,4.2231 z m -62.367,40.825 a 2.75,3.18 28.6 0 0 3.9367,-1.4756 2.75,3.18 28.6 0 0 -0.8923,-4.1084 2.75,3.18 28.6 0 0 -3.9367,1.4756 2.75,3.18 28.6 0 0 0.8923,4.1084 z m -186.91,19.055 a 3.41,3.77 25.7 0 0 4.7076,-1.9183 3.41,3.77 25.7 0 0 -1.4378,-4.8759 3.41,3.77 25.7 0 0 -4.7076,1.9183 3.41,3.77 25.7 0 0 1.4378,4.8759 z"
     fill="#38b8e2"
     id="path102" />
  <circle
     cx="662.26001"
     cy="446.35999"
     r="5.9699998"
     fill="#fdfef8"
     id="circle102" />
  <ellipse
     transform="rotate(-20.4)"
     rx="7.77"
     ry="7.3800001"
     fill="#329bc9"
     id="ellipse103"
     cx="417.61133"
     cy="635.50635" />
  <ellipse
     transform="rotate(89.3)"
     rx="3.8800001"
     ry="3.72"
     fill="#fdfef8"
     id="ellipse104"
     cx="475.03333"
     cy="-645.13416" />
  <circle
     cx="117.38"
     cy="474.82001"
     r="7.8600001"
     fill="#0f2030"
     id="circle104" />
  <ellipse
     transform="rotate(47.3)"
     rx="5.9899998"
     ry="5.5500002"
     fill="#fdfef8"
     id="ellipse105"
     cx="395.77777"
     cy="274.58087" />
  <ellipse
     transform="rotate(-3.7)"
     rx="10.47"
     ry="10.01"
     fill="#329bc9"
     id="ellipse106"
     cx="538.75153"
     cy="517.5224" />
  <path
     d="m 608.38,481.34 q 0.35,-2.91 2.97,-4.01 1,-0.43 1.69,0.42 1.82,2.24 2.07,4.83 0.16,1.64 -1.44,2 c -2.22,0.49 -5.66,-0.13 -5.29,-3.24 z"
     fill="#fdfef8"
     id="path106" />
  <ellipse
     transform="rotate(20.9)"
     rx="4.8699999"
     ry="4.5"
     fill="#0f2030"
     id="ellipse107"
     cx="436.37274"
     cy="352.48145" />
  <path
     d="m 403.59,494.95 q -0.27,0.24 -0.63,0.32 -0.39,0.08 -0.31,-0.31 0.02,-0.13 0,-0.27 a 0.19,0.18 82.2 0 1 0.17,-0.23 q 0.42,-0.03 0.74,0.16 0.24,0.15 0.03,0.33 z"
     fill="#38b8e2"
     id="path107" />
  <circle
     cx="132.45999"
     cy="510.63"
     r="13.91"
     fill="#0f2030"
     id="circle107" />
  <ellipse
     transform="rotate(52.2)"
     rx="3.4100001"
     ry="3.1600001"
     fill="#0f2030"
     id="ellipse108"
     cx="561.26666"
     cy="94.063179" />
  <ellipse
     transform="rotate(85.5)"
     rx="2.3399999"
     ry="1.8200001"
     fill="#fdfef8"
     id="ellipse109"
     cx="513.48151"
     cy="-3.5613809" />
  <ellipse
     transform="rotate(-16.6)"
     rx="4.4899998"
     ry="4.1900001"
     fill="#0f2030"
     id="ellipse110"
     cx="1.603459"
     cy="546.82611" />
  <ellipse
     transform="rotate(89.3)"
     rx="4.46"
     ry="4.1799998"
     fill="#fdfef8"
     id="ellipse111"
     cx="531.71979"
     cy="-625.43085" />
  <path
     d="m 609.18,523.54 q 0.78,2.63 -1.7,5.3 -4.42,4.76 -7.93,9.24 -5.54,7.05 -7.67,9.47 c -4.51,5.12 -8.91,10.25 -13.76,15.18 q -6.58,6.68 -13.3,13.21 -17.44,16.93 -26.07,23.41 -7.94,5.95 -16.85,12.88 -5.88,4.57 -12.56,7.78 -3.7,1.78 -7.21,4.32 -3.31,2.38 -7.49,4.55 -16.62,8.65 -31.29,14.52 -8.98,3.6 -18.09,6.67 -22.31,7.54 -46.57,11.95 c -6.43,1.17 -13.8,1.8 -20.64,2.54 -14.7,1.58 -29.97,1.14 -44.65,-0.32 q -6.55,-0.65 -12.9,-1.87 c -7.75,-1.49 -14.25,-2.72 -21.27,-4.96 -6.13,-1.96 -12.25,-5.07 -18.19,-7.86 q -3.02,-1.41 -7.5,-1.18 -4.51,0.23 -9.01,0.58 -3.23,0.25 -6.26,-0.74 c 3.03,-6.05 2.04,-12.83 -3.41,-16.93 -8.95,-6.72 -21.54,-0.6 -20.35,11.02 q -3.07,-0.03 -5.97,-0.96 c -12.59,-4.05 -25.26,-9.08 -36.56,-15.96 q -5.62,-3.42 -10.99,-6.83 -11.59,-7.34 -21.74,-15.98 c -7.78,-6.62 -15.71,-13.16 -23.38,-19.89 q -4.76,-4.18 -12.13,-9.62 -12.02,-8.86 -23.81,-19.74 18.86,2.35 36.34,5.78 2.25,0.44 6.25,0.55 2.62,6.19 3.9,8.03 5.25,7.56 15.36,12.14 14.27,6.46 29.76,8.91 11.77,1.86 22.88,2.88 l 16.56,11.89 q 6.01,4.43 11.87,9.05 7.47,5.89 24.26,14.62 16.68,8.68 35.3,12.16 16.07,3.01 33.44,-2.17 c 14.01,-4.17 26.98,-10.49 40.37,-17.01 q 8.29,-4.04 17.56,-7 9.64,-3.09 19.74,-5.33 3.97,0.45 7.01,-1.15 c 15.7,-0.74 28.93,-1.4 42.84,-5.8 q 6.76,-2.14 17.27,-6.68 9.09,-3.92 15.81,-8.77 c 10.34,-7.47 19.02,-17.12 27.17,-24.96 q 11.63,-11.19 26.09,-17.63 c 10.65,-4.74 22.25,-8.55 33.98,-11.4 q 9.18,-2.22 17.91,-5.07 c 2.59,-0.84 4.99,-1.94 7.58,-2.82 z m -66.346,36.263 a 3.87,3.87 0 0 0 -5.4286,-0.6955 l -0.8387,0.6483 a 3.87,3.87 0 0 0 -0.6955,5.4286 l 1.0152,1.3134 a 3.87,3.87 0 0 0 5.4286,0.6955 l 0.8387,-0.6483 a 3.87,3.87 0 0 0 0.6955,-5.4286 z m -48.612,43.558 a 6.8,7.04 3 0 0 7.1591,-6.6745 6.8,7.04 3 0 0 -6.4223,-7.3863 6.8,7.04 3 0 0 -7.1591,6.6745 6.8,7.04 3 0 0 6.4223,7.3863 z m -274.34,-1.3937 a 1.01,0.58 45.2 0 0 -0.3001,-1.1254 1.01,0.58 45.2 0 0 -1.1233,-0.308 1.01,0.58 45.2 0 0 0.3001,1.1254 1.01,0.58 45.2 0 0 1.1233,0.308 z m 23.248,17.283 0.31,0.63 q 0.4,0.77 0.56,-0.08 0.07,-0.36 0,-0.73 -0.07,-0.32 -0.39,-0.43 -0.2,-0.07 -0.42,0.17 a 0.38,0.38 0 0 0 -0.06,0.44 z m 176.67,13.906 a 2.72,3.07 8.5 0 0 3.1439,-2.6343 2.72,3.07 8.5 0 0 -2.2363,-3.4383 2.72,3.07 8.5 0 0 -3.1439,2.6343 2.72,3.07 8.5 0 0 2.2363,3.4383 z m -57.345,-1.2683 a 0.55,0.74 14 0 0 0.7127,-0.5849 0.55,0.74 14 0 0 -0.3547,-0.8511 0.55,0.74 14 0 0 -0.7127,0.5849 0.55,0.74 14 0 0 0.3547,0.8511 z m -55.011,15.682 q -0.4,-0.31 -0.9,-0.36 a 0.16,0.15 1.8 0 0 -0.17,0.15 q 0,0.16 0.03,0.31 a 0.42,0.42 0 0 0 0.41,0.33 h 0.49 q 0.7,0 0.14,-0.43 z"
     fill="#173651"
     id="path111" />
  <ellipse
     transform="rotate(99.7)"
     rx="3.71"
     ry="3.3599999"
     fill="#fdfef8"
     id="ellipse112"
     cx="434.05145"
     cy="-619.99536" />
  <circle
     cx="100.42999"
     cy="535.83997"
     r="4.0500002"
     fill="#fdfef8"
     id="circle112" />
  <ellipse
     transform="rotate(-8.4)"
     rx="5.75"
     ry="5.54"
     fill="#0f2030"
     id="ellipse113"
     cx="364.97491"
     cy="606.4184" />
  <ellipse
     transform="rotate(-12)"
     rx="7.6399999"
     ry="6.9499998"
     fill="#329bc9"
     id="ellipse114"
     cx="269.87338"
     cy="625.63513" />
  <g
     fill="#fdfef8"
     id="g118"
     transform="translate(-172.72,-128.63)">
    <rect
       transform="rotate(-37.7,1369.4,-697.72)"
       x="-4.4000001"
       y="-4.6999998"
       width="8.8000002"
       height="9.3999996"
       rx="3.8699999"
       id="rect114" />
    <ellipse
       transform="rotate(118.6,116.03,544.06)"
       rx="3.1800001"
       ry="2.75"
       id="ellipse115"
       cx="0"
       cy="0" />
    <ellipse
       transform="rotate(40.6,-603.35,1364.5)"
       rx="6.6799998"
       ry="6.4400001"
       id="ellipse116"
       cx="0"
       cy="0" />
    <ellipse
       transform="rotate(115.7,4.62,505.87)"
       rx="3.77"
       ry="3.4100001"
       id="ellipse117"
       cx="0"
       cy="0" />
    <ellipse
       transform="rotate(93,-10.326,679.11)"
       rx="7.04"
       ry="6.8000002"
       id="ellipse118"
       cx="0"
       cy="0" />
    <path
       d="m 593.25,735.3 q -3.04,1.6 -7.01,1.15 -3.68,-2.66 -4.53,-6.6 c 0.18,-7.28 8.46,-10.55 12.87,-4.46 q 3.47,4.79 -1.33,9.91 z"
       id="path118" />
  </g>
  <path
     d="m 408.99,601.22 q 0.85,3.94 4.53,6.6 -10.1,2.24 -19.74,5.33 -9.27,2.96 -17.56,7 c -13.39,6.52 -26.36,12.84 -40.37,17.01 q -17.37,5.18 -33.44,2.17 -18.62,-3.48 -35.3,-12.16 -16.79,-8.73 -24.26,-14.62 -5.86,-4.62 -11.87,-9.05 0.82,0.08 1.69,0.75 a 0.71,0.71 0 0 0 0.83,0.02 q 1.58,-1.05 3.08,-0.49 3.21,1.18 6.64,2.14 2.56,0.71 5.04,1.74 1.59,0.66 3.49,0.92 1.72,0.23 3.52,0.67 10.8,2.59 22.35,4.43 a 1.79,1.79 0 0 1 0.78,0.33 q 0.13,0.1 0.24,0.23 a 0.79,0.8 63 0 0 0.85,0.27 q 0.39,-0.1 0.59,-0.47 a 0.92,0.97 5.5 0 1 0.48,-0.42 q 1.7,-0.66 3.34,-0.42 c 7.06,1.06 10.91,-0.5 16.86,-2.47 q 2.07,-0.68 4,-0.23 -4.33,6.71 -1.92,13.59 c 1.57,4.48 7.11,9.07 12.1,9.25 10.11,0.36 17.86,-8.32 14.48,-18.38 q -2.42,-7.18 -9.91,-9.58 12.86,-2.93 18.39,-3.84 c 8.14,-1.34 15.97,-1.14 25.12,-2.16 q 6.22,-0.68 11.33,-0.06 4.44,0.55 7.86,0.19 10.37,-1.07 13.7,-0.56 6.5,0.99 13.08,2.27 z"
     fill="#329bc9"
     id="path119" />
  <ellipse
     transform="rotate(45.2)"
     rx="1.01"
     ry="0.57999998"
     fill="#329bc9"
     id="ellipse119"
     cx="581.06665"
     cy="268.14609" />
  <path
     d="m 319.51,605.38 q 7.49,2.4 9.91,9.58 c 3.38,10.06 -4.37,18.74 -14.48,18.38 -4.99,-0.18 -10.53,-4.77 -12.1,-9.25 q -2.41,-6.88 1.92,-13.59 5.86,-6.62 14.75,-5.12 z"
     fill="#0f2030"
     id="path120" />
  <ellipse
     transform="rotate(61.7)"
     rx="6.0999999"
     ry="5.8400002"
     fill="#fdfef8"
     id="ellipse120"
     cx="799.55426"
     cy="-168.1561" />
  <path
     d="m 243.13,619.25 a 0.38,0.38 0 0 1 0.06,-0.44 q 0.22,-0.24 0.42,-0.17 0.32,0.11 0.39,0.43 0.07,0.37 0,0.73 -0.16,0.85 -0.56,0.08 z"
     fill="#38b8e2"
     id="path121" />
  <g
     fill="#fdfef8"
     id="g122"
     transform="translate(-172.72,-128.63)">
    <ellipse
       transform="rotate(9.9,-4199.7,2276.3)"
       rx="6.8000002"
       ry="6.6599998"
       id="ellipse121"
       cx="0"
       cy="0" />
    <ellipse
       transform="rotate(98.5,-30.405,634.84)"
       rx="3.0699999"
       ry="2.72"
       id="ellipse122"
       cx="0"
       cy="0" />
    <path
       d="m 430.99,776.84 c -7.2,9.55 -21.59,5.99 -23.76,-5.91 -1.19,-11.62 11.4,-17.74 20.35,-11.02 5.45,4.1 6.44,10.88 3.41,16.93 z"
       id="path122" />
  </g>
  <ellipse
     transform="rotate(104)"
     rx="0.74000001"
     ry="0.55000001"
     fill="#38b8e2"
     id="ellipse123"
     cx="524.69232"
     cy="-504.55179" />
  <path
     d="M 307.44,647.57 Q 308,648 307.3,648 h -0.49 a 0.42,0.42 0 0 1 -0.41,-0.33 q -0.03,-0.15 -0.03,-0.31 a 0.16,0.15 1.8 0 1 0.17,-0.15 q 0.5,0.05 0.9,0.36 z"
     fill="#329bc9"
     id="path123" />
  <text
     transform="translate(-172.72,-128.63)"
     fill="#aecdea"
     font-family="Satoshi"
     style="white-space:pre;shape-inside:url(#rect124);display:inline"
     xml:space="preserve"
     id="text123" />
  <text
     x="865.71796"
     y="1737.4719"
     fill="#0f2030"
     font-family="Satoshi"
     font-size="213.33px"
     xml:space="preserve"
     id="text124"><tspan
       x="865.71796"
       y="1737.4719"
       fill="#0f2030"
       font-size="213.33px"
       id="tspan123">iets nuuts</tspan></text>
  <rect
     x="113.72"
     y="-841.66"
     width="259.91"
     height="267.46"
     fill="#173651"
     id="rect124" />
</svg>
