<?xml version="1.0" encoding="UTF-8"?>
<!-- Created with Inkscape (http://www.inkscape.org/) -->
<svg width="63.5mm" height="62.362mm" version="1.1" viewBox="0 0 63.5 62.362" xml:space="preserve" xmlns="http://www.w3.org/2000/svg"><g transform="translate(-80.514 -131.6)"><path d="m98.153 193.7c0-0.16199 1.9447-0.80614 4.3215-1.4315 8.5835-2.2582 14.993-5.7067 20.652-11.111 2.2783-2.1758 3.3282-3.6086 3.7775-5.1551 0.23781-0.81857 0.15832-0.78992-1.1063 0.39869-3.3702 3.1676-10.365 7.4716-15.407 9.4803-4.5161 1.7992-8.6162 2.5736-13.825 2.6114-4.9188 0.0356-7.3506-0.3864-10.068-1.7474-1.9222-0.96259-4.572-3.7297-4.572-4.7744 0-0.70002 0.0829-0.67719 1.2445 0.34273 1.2528 1.1 3.1945 2.2085 4.6645 2.663l0.79375 0.24543v-23.684h-4.057c-3.759 0-4.0569-0.0495-4.0569-0.67428 0-0.43656 5.3405-5.5978 15.148-14.64 8.3316-7.6811 15.247-14.125 15.367-14.319 0.55772-0.9024 1.9115 0.0386 7.6224 5.2979l6.1362 5.6511 0.35278-5.8341 7.2319-0.20107v13.021l5.8208 5.3695c3.2014 2.9532 5.8208 5.5854 5.8208 5.8492 0 0.38064-0.98233 0.47964-4.7588 0.47964h-4.7588l-0.1838 31.221-14.464 0.21746c-8.0554 0.12112-15.245 0.38533-16.228 0.59633-2.1304 0.45759-5.4681 0.53475-5.4681 0.1264z" fill="#eb762c"/></g></svg>
